<svg width="1080" height="1080" viewBox="0 0 1080 1080" fill="none" xmlns="http://www.w3.org/2000/svg">
<rect width="1080" height="1080" rx="188" fill="#2993EB"/>
<path d="M727.793 758.95C747.581 737.471 733.771 702.698 705.007 701.577L647.734 699.344C623.115 698.385 605.463 723.627 614.624 746.692L632.497 791.694C641.657 814.759 671.457 820.104 688.393 801.72L727.793 758.95Z" fill="#D9D9D9"/>
<path d="M727.793 534.761C747.581 513.282 733.771 478.51 705.007 477.388L647.734 475.156C623.115 474.196 605.463 499.438 614.624 522.503L632.497 567.505C641.657 590.57 671.457 595.915 688.393 577.531L727.793 534.761Z" fill="#D9D9D9"/>
<path d="M727.793 315.555C747.581 294.075 733.771 259.303 705.007 258.181L647.734 255.949C623.115 254.989 605.463 280.231 614.624 303.296L632.497 348.299C641.657 371.363 671.457 376.708 688.393 358.324L727.793 315.555Z" fill="#D9D9D9"/>
<path d="M353.207 758.95C333.419 737.471 347.229 702.698 375.993 701.577L433.266 699.344C457.885 698.385 475.537 723.627 466.376 746.692L448.503 791.694C439.343 814.759 409.543 820.104 392.607 801.72L353.207 758.95Z" fill="#D9D9D9"/>
<path d="M353.207 534.761C333.419 513.282 347.229 478.51 375.993 477.388L433.266 475.156C457.885 474.196 475.537 499.438 466.376 522.503L448.503 567.505C439.343 590.57 409.543 595.915 392.607 577.531L353.207 534.761Z" fill="#D9D9D9"/>
<path d="M353.207 315.555C333.419 294.075 347.229 259.303 375.993 258.181L433.266 255.949C457.885 254.989 475.537 280.231 466.376 303.296L448.503 348.299C439.343 371.363 409.543 376.708 392.607 358.324L353.207 315.555Z" fill="#D9D9D9"/>
<path d="M496.606 904.439C498.33 899.056 503.335 895.404 508.987 895.404H574.019C579.668 895.404 584.671 899.052 586.397 904.431L599.105 944.027C601.798 952.418 595.539 961 586.727 961H496.304C487.495 961 481.236 952.424 483.923 944.034L496.606 904.439Z" fill="#D9D9D9" fill-opacity="0.6"/>
<rect x="392.831" y="197.928" width="292.531" height="729.859" rx="38" fill="white"/>
<ellipse cx="539.096" cy="339.914" rx="88.0826" ry="90.5058" fill="#D9D9D9"/>
<ellipse cx="539.096" cy="562.442" rx="88.0826" ry="90.5058" fill="#D9D9D9"/>
<ellipse cx="539.096" cy="784.97" rx="88.0826" ry="90.5058" fill="#D9D9D9"/>
<ellipse cx="541.117" cy="340.329" rx="63.4356" ry="65.1808" fill="#E80404"/>
<ellipse cx="541.117" cy="562.027" rx="63.4356" ry="65.1808" fill="#FFEA00"/>
<ellipse cx="538.692" cy="784.555" rx="63.4356" ry="65.1808" fill="#00FF37"/>
<path fill-rule="evenodd" clip-rule="evenodd" d="M707.148 125.911C704.355 141.879 695.853 155.56 682.244 165.991C676.599 170.318 665.775 174.88 657.055 176.608L649 178.204L654.696 179.062C668.631 181.162 679.09 186.466 689.348 196.636C699.475 206.676 704.606 216.327 707.137 230.101L708.406 237L709.752 230.172C712.571 215.88 718.193 205.461 728.311 195.771C737.86 186.627 749.124 181.074 762.218 179.055L768 178.163L764.372 177.546C747.399 174.654 736.584 169.19 726.131 158.223C717.101 148.75 711.49 137.389 709.543 124.634C709.086 121.634 708.638 119.1 708.549 119.002C708.461 118.905 707.83 122.014 707.148 125.911Z" fill="white"/>
</svg>
